<?xml version="1.0" standalone="no"?>
<!DOCTYPE svg PUBLIC "-//W3C//DTD SVG 20010904//EN"
 "http://www.w3.org/TR/2001/REC-SVG-20010904/DTD/svg10.dtd">
<svg version="1.0" xmlns="http://www.w3.org/2000/svg"
 width="260.000000pt" height="260.000000pt" viewBox="0 0 260.000000 260.000000"
 preserveAspectRatio="xMidYMid meet">
<metadata>
Created by potrace 1.14, written by Peter Selinger 2001-2017
</metadata>
<g transform="translate(0.000000,260.000000) scale(0.100000,-0.100000)"
fill="#000000" stroke="none">
<path d="M308 2581 c-144 -46 -249 -154 -292 -302 -14 -47 -16 -162 -14 -999
l3 -945 22 -55 c46 -111 142 -207 253 -253 l55 -22 930 -3 c668 -2 945 0 985
8 163 34 294 157 335 315 13 52 15 180 15 986 -1 905 -1 928 -21 987 -40 120
-141 227 -256 273 l-58 24 -950 2 c-898 2 -953 1 -1007 -16z m578 -652 c54
-26 86 -78 86 -140 0 -173 -227 -226 -303 -71 -69 140 75 280 217 211z m971 5
c96 -46 121 -174 51 -255 -65 -72 -192 -67 -249 10 -25 34 -29 47 -30 101 -3
117 120 194 228 144z m-477 -495 c75 -43 103 -141 60 -216 -84 -151 -312 -81
-298 91 3 30 13 63 24 78 48 66 143 87 214 47z m-486 -488 c88 -50 106 -176
34 -250 -106 -108 -292 -24 -275 126 13 119 136 183 241 124z m961 7 c122 -48
123 -234 2 -292 -132 -62 -277 78 -217 211 39 86 122 117 215 81z"/>
</g>
</svg>
